#!OML:ASF E:/inclinewalkrobotboard/Project1/Captureday1/Session1/subject1.ASF
:FULLY-SPECIFIED
:DEGREES
188
root 0 0 0 -1.260685327670398 -6.030236337078232 -7.480020675496853
lowerback 10.56546348868323 1.9382656573483272 6.553549633907098
upperback 0.6130194027124597 3.4616988970101135 2.129589467229393
thorax -5.058297322225567 1.5689917200888077 -1.9527310831755558
lowerneck -18.429171926289833 -3.1544509928031665 -1.869641118674
upperneck 19.810253753986988 -4.014484024012833 0.3132505625972546
head 9.278477938265704 -1.9375470843379683 -0.12669598598046178
rclavicle -7.242868714734393E-15 2.355694841254352E-15
rhumerus -30.32844756190361 -15.675738589561629 -81.02762115407191
rradius 25.4814138914274
rwrist 3.2941106975074765
rhand -18.663137110338628 26.385620236401465
rfingers 7.125020000000013
rthumb 7.627429884221859 -3.476061254577516
lclavicle -7.592365878177648E-15 1.8508331423558715E-15
lhumerus -33.355108435299115 0.8261131711990153 84.55341324470493
lradius 26.040698779963158
lwrist 6.0226852202097145
lhand -27.593729502985774 24.642932991156428
lfingers 7.125020000000028
lthumb -0.9985558898739431 54.64240738040115
rfemur -2.9883917008869973 8.338090260670407 34.65237476166338
rtibia 24.405017586887464
rfoot -22.28225640356994 -6.71520357648124
rtoes 7.993496560730606
lfemur -28.06733096485402 -1.0921031534231427 -13.60010134541946
ltibia 27.324373855174446
lfoot -6.415550859568286 2.334019197865908
ltoes -0.3103877725993698
189
root 0 0 0 -0.8272485489752177 -6.279998336738718 -7.372291386014044
lowerback 10.452882182376895 2.0737330283212394 6.491263897239465
upperback 0.7529466437305334 3.598533981315632 1.9557541830414942
thorax -4.8473342585538965 1.6383569939207534 -2.1226362427229484
lowerneck -17.993119276929505 -3.0186962248119196 -1.8083616614357965
upperneck 18.419030365065332 -3.782383744811689 0.3033094848780651
head 8.68934913869998 -1.8570611085366233 -0.0983410825760499
rclavicle -7.67130891106528E-15 3.1904282928663677E-16
rhumerus -29.823717976360413 -14.99945134393026 -81.06301922043367
rradius 26.161432049581364
rwrist 2.4761465059745005
rhand -18.77773523782954 26.500739411231237
rfingers 7.12502000000001
rthumb 7.517632728041645 -3.3578342539626647
lclavicle -8.128060376644553E-15 -2.1941686194355179E-16
lhumerus -34.18960123765405 2.055535045413316 84.38617237529493
lradius 24.90600258204116
lwrist 5.5045935987945676
lhand -27.548290658815013 24.688058569841402
lfingers 7.125020000000031
lthumb -0.9516838658176203 54.69235004784029
rfemur 7.321108271418791 8.815127925780963 36.256533508717325
rtibia 24.080904861452108
rfoot -21.15771355173744 -4.874662783727556
rtoes -2.556642030107315
lfemur -26.58806912395754 -4.423327849231098 -12.645342370103872
ltibia 21.287051465557433
lfoot -5.093561669986958 3.860088160387581
ltoes 0.3234638515750632
190
root 0 0 0 -0.9844299629142319 -6.27020070657448 -7.1589170934369
lowerback 10.369903735515233 2.1244259697010413 6.319275522283977
upperback 0.7126506477926725 3.642768229058502 1.8990250789268308
thorax -4.846526675099849 1.6652723635925788 -2.0867659654739894
lowerneck -18.025925571062054 -3.051050496490584 -1.8415755620116214
upperneck 18.56333569772447 -3.839921987925753 0.3723140224145345
head 8.750048376990435 -1.8765048865970695 -0.07804860239257921
rclavicle -8.700568883085032E-15 -1.4744969028514416E-15
rhumerus -30.24278626004473 -15.83322728929665 -80.73851946416288
rradius 25.417798472372176
rwrist 2.9841658896242658
rhand -18.699876731712184 26.4082867309761
rfingers 7.125020000000012
rthumb 7.592538119544381 -3.4421964878696443
lclavicle -9.409877227362465E-15 -2.059916971593215E-15
lhumerus -35.459540323115775 3.494750639573846 83.67148007587558
lradius 23.942215669378793
lwrist 4.631785820441046
lhand -27.221996819341527 24.35489553949584
lfingers 7.125020000000032
lthumb -0.6355776058802123 54.35145874076416
rfemur 9.080591964515818 8.608451316557911 36.231305345960344
rtibia 26.17431600134133
rfoot -19.522965679800215 -3.892741665391972
rtoes -5.2956920364403635
lfemur -26.53405572838265 -4.264497991287804 -13.027409166459693
ltibia 21.607973129236115
lfoot -4.898208675011423 3.260768272537967
ltoes 0.3788335464572796
191
root 0 0 0 -1.379402650705881 -6.23060654017751 -6.655857804268158
lowerback 10.381057484801863 2.148414600941209 5.902268901355027
upperback 0.632572998686579 3.6327005173922364 1.830272441938225
thorax -4.946821699924674 1.67114319026946 -1.917429133099739
lowerneck -18.14663428997364 -3.155849702094288 -1.9147140271453362
upperneck 19.219506991824648 -4.005172549254518 0.4630600110837375
head 9.014277261488921 -1.9386671832779165 -0.061162126330995215
rclavicle -8.591696725986014E-15 -1.9516501557080863E-15
rhumerus -30.86265730033619 -16.876002465079146 -80.39473709323772
rradius 24.43564263366057
rwrist 3.834358339952362
rhand -18.576086325346672 26.29695369080852
rfingers 7.1250200000000135
rthumb 7.7119803716567565 -3.547491547495902
lclavicle -9.743560718257032E-15 -2.49003271837019E-15
lhumerus -37.32644772529391 5.707901876735607 82.14580866863918
lradius 22.68114030512868
lwrist 3.269627390881804
lhand -26.569355848967476 24.00524975663576
lfingers 7.125020000000028
lthumb -0.006375543476109691 53.98738018024541
rfemur 8.508062051548151 6.673815456071676 32.83330163731233
rtibia 33.19421238886232
rfoot -14.400793035865059 -2.114503463803193
rtoes -5.10513819396683
lfemur -26.359752022664424 -3.6400916029982473 -13.708824255019254
ltibia 22.187167291053594
lfoot -4.726492420037427 2.352174160760655
ltoes 0.4146747096243111
